<?xml version="1.0" encoding="utf-8"?>
<!-- Generator: Adobe Illustrator 27.5.0, SVG Export Plug-In . SVG Version: 6.00 Build 0)  -->
<svg version="1.1" xmlns="http://www.w3.org/2000/svg" xmlns:xlink="http://www.w3.org/1999/xlink" x="0px" y="0px"
	 viewBox="0 0 500 500" style="enable-background:new 0 0 500 500;" xml:space="preserve">
<g id="Background_Complete">
	<g>
		<rect y="382.398" style="fill:#EBEBEB;" width="500" height="0.25"/>
		<rect x="372.333" y="398.494" style="fill:#EBEBEB;" width="77.568" height="0.25"/>
		<rect x="278" y="394.986" style="fill:#EBEBEB;" width="55.333" height="0.25"/>
		<rect x="356.762" y="389.208" style="fill:#EBEBEB;" width="59.016" height="0.25"/>
		<rect x="52.459" y="390.888" style="fill:#EBEBEB;" width="12.693" height="0.25"/>
		<rect x="74.056" y="390.888" style="fill:#EBEBEB;" width="71.611" height="0.25"/>
		<rect x="173.162" y="395.111" style="fill:#EBEBEB;" width="46.838" height="0.25"/>
		<path style="fill:#EBEBEB;" d="M237.014,337.8H43.915c-3.147,0-5.708-2.561-5.708-5.708V60.66c0-3.147,2.561-5.708,5.708-5.708
			h193.099c3.146,0,5.707,2.561,5.707,5.708v271.432C242.721,335.239,240.16,337.8,237.014,337.8z M43.915,55.203
			c-3.01,0-5.458,2.448-5.458,5.458v271.432c0,3.01,2.448,5.458,5.458,5.458h193.099c3.009,0,5.457-2.448,5.457-5.458V60.66
			c0-3.009-2.448-5.458-5.457-5.458H43.915z"/>
		<path style="fill:#EBEBEB;" d="M453.31,337.8H260.212c-3.147,0-5.707-2.561-5.707-5.708V60.66c0-3.147,2.561-5.708,5.707-5.708
			H453.31c3.148,0,5.708,2.561,5.708,5.708v271.432C459.019,335.239,456.458,337.8,453.31,337.8z M260.212,55.203
			c-3.009,0-5.457,2.448-5.457,5.458v271.432c0,3.01,2.448,5.458,5.457,5.458H453.31c3.01,0,5.458-2.448,5.458-5.458V60.66
			c0-3.009-2.448-5.458-5.458-5.458H260.212z"/>
	</g>
	<g>
		<g>
			<path style="fill:#FAFAFA;" d="M421.068,327.814H178.277c-6.777,0-12.322-5.545-12.322-12.322V165.914
				c0-6.777,5.545-12.322,12.322-12.322h242.791c6.777,0,12.322,5.545,12.322,12.322v149.578
				C433.39,322.269,427.845,327.814,421.068,327.814z"/>
			<path style="fill:#F5F5F5;" d="M433.247,320.848h-3.139v-1.029h3.078L433.247,320.848z M427.03,320.848h-3.078v-1.029h3.078
				V320.848z M420.875,320.848h-3.078v-1.029h3.078V320.848z M414.72,320.848h-3.078v-1.029h3.078V320.848z M408.565,320.848h-3.078
				v-1.029h3.078V320.848z M402.41,320.848h-3.078v-1.029h3.078V320.848z M396.255,320.848h-3.078v-1.029h3.078V320.848z
				 M390.099,320.848h-3.078v-1.029h3.078V320.848z M383.944,320.848h-3.078v-1.029h3.078V320.848z M377.789,320.848h-3.077v-1.029
				h3.077V320.848z M371.634,320.848h-3.078v-1.029h3.078V320.848z M365.479,320.848h-3.078v-1.029h3.078V320.848z M359.324,320.848
				h-3.078v-1.029h3.078V320.848z M353.169,320.848h-3.078v-1.029h3.078V320.848z M347.014,320.848h-3.078v-1.029h3.078V320.848z
				 M340.858,320.848h-3.078v-1.029h3.078V320.848z M334.703,320.848h-3.078v-1.029h3.078V320.848z M328.548,320.848h-3.078v-1.029
				h3.078V320.848z M322.393,320.848h-3.078v-1.029h3.078V320.848z M316.238,320.848h-3.078v-1.029h3.078V320.848z M310.082,320.848
				h-3.077v-1.029h3.077V320.848z M303.928,320.848h-3.078v-1.029h3.078V320.848z M297.772,320.848h-3.078v-1.029h3.078V320.848z
				 M291.617,320.848h-3.078v-1.029h3.078V320.848z M285.462,320.848h-3.077v-1.029h3.077V320.848z M279.307,320.848h-3.078v-1.029
				h3.078V320.848z M273.152,320.848h-3.078v-1.029h3.078V320.848z M266.996,320.848h-3.078v-1.029h3.078V320.848z M260.842,320.848
				h-3.078v-1.029h3.078V320.848z M254.686,320.848h-3.078v-1.029h3.078V320.848z M248.531,320.848h-3.078v-1.029h3.078V320.848z
				 M242.376,320.848h-3.078v-1.029h3.078V320.848z M236.221,320.848h-3.078v-1.029h3.078V320.848z M230.066,320.848h-3.078v-1.029
				h3.078V320.848z M223.911,320.848h-3.077v-1.029h3.077V320.848z M217.756,320.848h-3.078v-1.029h3.078V320.848z M211.6,320.848
				h-3.078v-1.029h3.078V320.848z M205.445,320.848h-3.078v-1.029h3.078V320.848z M199.29,320.848h-3.078v-1.029h3.078V320.848z
				 M193.135,320.848h-3.078v-1.029h3.078V320.848z M186.98,320.848h-3.078v-1.029h3.078V320.848z M180.825,320.848h-3.077v-1.029
				h3.077V320.848z M174.67,320.848h-3.078v-1.029h3.078V320.848z M168.515,320.848h-3.078v-1.029h3.078V320.848z M162.359,320.848
				h-3.078v-1.029h3.078V320.848z M156.204,320.848h-3.078v-1.029h3.078V320.848z M150.049,320.848h-0.788
				c-0.787,0-1.581-0.062-2.359-0.183l0.157-1.016c0.727,0.112,1.468,0.169,2.202,0.169h0.788V320.848z M436.409,320.506
				l-0.217-1.006c0.964-0.208,1.912-0.519,2.817-0.924l0.42,0.939C438.458,319.949,437.442,320.283,436.409,320.506z
				 M143.83,319.851c-0.986-0.375-1.941-0.856-2.837-1.432l0.556-0.865c0.836,0.536,1.727,0.985,2.647,1.336L143.83,319.851z
				 M442.179,317.925l-0.605-0.832c0.802-0.582,1.546-1.248,2.212-1.979l0.761,0.693
				C443.834,316.59,443.038,317.302,442.179,317.925z M138.508,316.439c-0.756-0.742-1.439-1.565-2.029-2.444l0.855-0.572
				c0.551,0.82,1.188,1.589,1.895,2.282L138.508,316.439z M446.435,313.252l-0.886-0.524c0.504-0.852,0.921-1.759,1.237-2.694
				l0.975,0.33C447.422,311.366,446.975,312.338,446.435,313.252z M134.991,311.186c-0.397-0.984-0.692-2.012-0.876-3.055
				l1.013-0.18c0.172,0.974,0.447,1.932,0.817,2.85L134.991,311.186z M448.46,307.263l-1.022-0.121
				c0.065-0.55,0.098-1.112,0.098-1.673v-1.339h1.028v1.339C448.564,306.069,448.529,306.673,448.46,307.263z M134.911,304.979
				h-1.028v-3.078h1.028V304.979z M448.564,301.053h-1.028v-3.078h1.028V301.053z M134.911,298.824h-1.028v-3.078h1.028V298.824z
				 M448.564,294.897h-1.028v-3.078h1.028V294.897z M134.911,292.669h-1.028v-3.077h1.028V292.669z M448.564,288.742h-1.028v-3.077
				h1.028V288.742z M134.911,286.514h-1.028v-3.077h1.028V286.514z M448.564,282.587h-1.028v-3.077h1.028V282.587z M134.911,280.358
				h-1.028v-3.077h1.028V280.358z M448.564,276.432h-1.028v-3.077h1.028V276.432z M134.911,274.203h-1.028v-3.077h1.028V274.203z
				 M448.564,270.276h-1.028v-3.077h1.028V270.276z M134.911,268.049h-1.028v-3.078h1.028V268.049z M448.564,264.122h-1.028v-3.078
				h1.028V264.122z M134.911,261.894h-1.028v-3.078h1.028V261.894z M448.564,257.967h-1.028v-3.078h1.028V257.967z M134.911,255.738
				h-1.028v-3.078h1.028V255.738z M448.564,251.811h-1.028v-3.078h1.028V251.811z M134.911,249.583h-1.028v-3.077h1.028V249.583z
				 M448.564,245.656h-1.028v-3.077h1.028V245.656z M134.911,243.428h-1.028v-3.077h1.028V243.428z M448.564,239.501h-1.028v-3.077
				h1.028V239.501z M134.911,237.273h-1.028v-3.077h1.028V237.273z M448.564,233.346h-1.028v-3.077h1.028V233.346z M134.911,231.117
				h-1.028v-3.077h1.028V231.117z M448.564,227.191h-1.028v-3.078h1.028V227.191z M134.911,224.962h-1.028v-3.078h1.028V224.962z
				 M448.564,221.036h-1.028v-3.078h1.028V221.036z M134.911,218.807h-1.028v-3.078h1.028V218.807z M448.564,214.881h-1.028v-3.078
				h1.028V214.881z M134.911,212.652h-1.028v-3.078h1.028V212.652z M448.564,208.726h-1.028v-3.078h1.028V208.726z M134.911,206.497
				h-1.028v-3.078h1.028V206.497z M448.564,202.57h-1.028v-3.078h1.028V202.57z M134.911,200.342h-1.028v-3.078h1.028V200.342z
				 M448.564,196.415h-1.028v-3.078h1.028V196.415z M134.911,194.186h-1.028v-3.077h1.028V194.186z M448.564,190.26h-1.028v-3.078
				h1.028V190.26z M134.911,188.032h-1.028v-3.078h1.028V188.032z M448.564,184.105h-1.028v-3.078h1.028V184.105z M134.911,181.876
				h-1.028v-3.078h1.028V181.876z M448.564,177.95h-1.028v-3.078h1.028V177.95z M134.911,175.721h-1.028v-3.078h1.028V175.721z
				 M448.564,171.794h-1.028v-3.077h1.028V171.794z M134.911,169.566h-1.028v-3.078h1.028V169.566z M448.564,165.64h-1.028v-3.078
				h1.028V165.64z M134.911,163.411h-1.028v-3.078h1.028V163.411z M448.564,159.484h-1.028v-3.078h1.028V159.484z M134.911,157.256
				h-1.028v-3.078h1.028V157.256z M448.564,153.329h-1.028v-3.078h1.028V153.329z M134.911,151.101h-1.028v-3.077h1.028V151.101z
				 M448.564,147.174h-1.028v-3.077h1.028V147.174z M134.911,144.946h-1.028v-3.078h1.028V144.946z M448.564,141.019h-1.028v-3.078
				h1.028V141.019z M134.911,138.79h-1.028v-3.078h1.028V138.79z M448.564,134.864h-1.028v-3.078h1.028V134.864z M134.911,132.635
				h-1.028v-3.078h1.028V132.635z M448.564,128.708h-1.028v-3.078h1.028V128.708z M134.911,126.48h-1.028v-3.078h1.028V126.48z
				 M448.564,122.554h-1.028v-3.078h1.028V122.554z M134.911,120.325h-1.028v-1.308c0-0.61,0.037-1.224,0.108-1.826l1.021,0.122
				c-0.067,0.562-0.102,1.135-0.102,1.704V120.325z M447.314,116.503c-0.174-0.973-0.451-1.931-0.823-2.848l0.953-0.387
				c0.399,0.983,0.696,2.01,0.883,3.053L447.314,116.503z M135.67,114.424l-0.974-0.332c0.341-1.002,0.79-1.973,1.333-2.886
				l0.884,0.525C136.406,112.584,135.988,113.489,135.67,114.424z M445.097,111.04c-0.551-0.819-1.19-1.585-1.899-2.278l0.719-0.736
				c0.759,0.742,1.444,1.563,2.034,2.44L445.097,111.04z M138.681,109.35l-0.759-0.694c0.715-0.781,1.513-1.492,2.372-2.112
				l0.602,0.834C140.094,107.956,139.349,108.62,138.681,109.35z M440.874,106.916c-0.835-0.534-1.727-0.981-2.65-1.331l0.363-0.962
				c0.99,0.374,1.945,0.854,2.84,1.426L440.874,106.916z M143.466,105.897l-0.418-0.94c0.969-0.432,1.986-0.763,3.022-0.984
				l0.215,1.006C145.319,105.186,144.37,105.495,143.466,105.897z M435.357,104.832c-0.715-0.109-1.446-0.165-2.172-0.165h-0.818
				v-1.028h0.818c0.777,0,1.561,0.059,2.327,0.177L435.357,104.832z M429.289,104.667h-3.078v-1.028h3.078V104.667z
				 M423.134,104.667h-3.077v-1.028h3.077V104.667z M416.979,104.667h-3.078v-1.028h3.078V104.667z M410.824,104.667h-3.078v-1.028
				h3.078V104.667z M404.669,104.667h-3.078v-1.028h3.078V104.667z M398.514,104.667h-3.078v-1.028h3.078V104.667z M392.359,104.667
				h-3.078v-1.028h3.078V104.667z M386.204,104.667h-3.078v-1.028h3.078V104.667z M380.048,104.667h-3.077v-1.028h3.077V104.667z
				 M373.893,104.667h-3.078v-1.028h3.078V104.667z M367.738,104.667h-3.078v-1.028h3.078V104.667z M361.583,104.667h-3.077v-1.028
				h3.077V104.667z M355.428,104.667h-3.078v-1.028h3.078V104.667z M349.273,104.667h-3.078v-1.028h3.078V104.667z M343.118,104.667
				h-3.078v-1.028h3.078V104.667z M336.963,104.667h-3.078v-1.028h3.078V104.667z M330.808,104.667h-3.078v-1.028h3.078V104.667z
				 M324.652,104.667h-3.078v-1.028h3.078V104.667z M318.497,104.667h-3.077v-1.028h3.077V104.667z M312.342,104.667h-3.078v-1.028
				h3.078V104.667z M306.187,104.667h-3.078v-1.028h3.078V104.667z M300.032,104.667h-3.078v-1.028h3.078V104.667z M293.877,104.667
				h-3.078v-1.028h3.078V104.667z M287.722,104.667h-3.078v-1.028h3.078V104.667z M281.566,104.667h-3.078v-1.028h3.078V104.667z
				 M275.411,104.667h-3.077v-1.028h3.077V104.667z M269.256,104.667h-3.078v-1.028h3.078V104.667z M263.101,104.667h-3.078v-1.028
				h3.078V104.667z M256.946,104.667h-3.078v-1.028h3.078V104.667z M250.79,104.667h-3.077v-1.028h3.077V104.667z M244.636,104.667
				h-3.078v-1.028h3.078V104.667z M238.48,104.667h-3.078v-1.028h3.078V104.667z M232.325,104.667h-3.078v-1.028h3.078V104.667z
				 M226.17,104.667h-3.078v-1.028h3.078V104.667z M220.015,104.667h-3.078v-1.028h3.078V104.667z M213.86,104.667h-3.078v-1.028
				h3.078V104.667z M207.704,104.667h-3.078v-1.028h3.078V104.667z M201.55,104.667h-3.078v-1.028h3.078V104.667z M195.395,104.667
				h-3.078v-1.028h3.078V104.667z M189.239,104.667h-3.078v-1.028h3.078V104.667z M183.084,104.667h-3.077v-1.028h3.077V104.667z
				 M176.929,104.667h-3.078v-1.028h3.078V104.667z M170.774,104.667h-3.078v-1.028h3.078V104.667z M164.619,104.667h-3.078v-1.028
				h3.078V104.667z M158.463,104.667h-3.077v-1.028h3.077V104.667z M152.309,104.667h-3.047l-0.031-1.028h3.078V104.667z"/>
			<path style="fill:#F5F5F5;" d="M312.113,247H69.322C62.545,247,57,241.455,57,234.678V85.1c0-6.777,5.545-12.322,12.322-12.322
				h242.791c6.777,0,12.322,5.545,12.322,12.322v149.578C324.435,241.455,318.89,247,312.113,247z"/>
			<path style="fill:#EBEBEB;" d="M312.112,72.778H69.322C62.545,72.778,57,78.323,57,85.1h267.435
				C324.435,78.323,318.89,72.778,312.112,72.778z"/>
			<rect x="73.429" y="93.885" style="fill:#FFFFFF;" width="45.866" height="10.953"/>
			<rect x="126.572" y="93.885" style="fill:#FFFFFF;" width="69.964" height="10.953"/>
			<rect x="80.706" y="112.115" style="fill:#FFFFFF;" width="59.18" height="10.953"/>
			<rect x="147.163" y="112.115" style="fill:#FFFFFF;" width="90.274" height="10.953"/>
			<rect x="126.572" y="130.345" style="fill:#FFFFFF;" width="69.964" height="10.953"/>
			<rect x="95.26" y="148.574" style="fill:#FFFFFF;" width="59.18" height="10.953"/>
			<rect x="161.716" y="148.574" style="fill:#FFFFFF;" width="90.274" height="10.953"/>
			<rect x="102.537" y="221.493" style="fill:#FFFFFF;" width="45.866" height="10.953"/>
			<rect x="155.679" y="221.493" style="fill:#FFFFFF;" width="69.964" height="10.953"/>
			<rect x="109.813" y="203.264" style="fill:#FFFFFF;" width="59.18" height="10.953"/>
			<rect x="176.27" y="203.264" style="fill:#FFFFFF;" width="90.274" height="10.953"/>
			<rect x="95.26" y="166.804" style="fill:#FFFFFF;" width="31.312" height="10.953"/>
			<rect x="133.849" y="166.804" style="fill:#FFFFFF;" width="90.274" height="10.953"/>
			<path style="fill:#FFFFFF;" d="M303.099,78.939c0,2.079-1.686,3.765-3.765,3.765s-3.765-1.686-3.765-3.765
				c0-2.079,1.686-3.765,3.765-3.765S303.099,76.859,303.099,78.939z"/>
			<path style="fill:#FFFFFF;" d="M288.546,78.939c0,2.079-1.686,3.765-3.765,3.765c-2.079,0-3.765-1.686-3.765-3.765
				c0-2.079,1.686-3.765,3.765-3.765C286.86,75.174,288.546,76.859,288.546,78.939z"/>
			<circle style="fill:#FFFFFF;" cx="270.227" cy="78.939" r="3.765"/>
		</g>
		<g>
			<path style="fill:#F5F5F5;" d="M429.305,95.512c-0.088-10.429-8.565-18.857-19.015-18.857c-2.518,0-4.919,0.494-7.118,1.382
				c-3.735-7.64-11.58-12.903-20.657-12.903c-10.977,0-20.15,7.698-22.431,17.988c-10.323,0.664-18.492,9.243-18.492,19.734
				c0,10.924,8.856,19.78,19.78,19.78h62.94c7.744,0,14.022-6.278,14.022-14.021C438.333,102.63,434.582,97.524,429.305,95.512z"/>
			<polygon style="fill:#EBEBEB;" points="394.379,101.285 378.194,85.1 362.01,101.285 370.639,101.285 370.639,141.161 
				385.75,141.161 385.75,101.285 			"/>
			<polygon style="fill:#EBEBEB;" points="383.176,148.34 399.362,164.525 415.546,148.34 406.917,148.34 406.917,108.464 
				391.806,108.464 391.806,148.34 			"/>
		</g>
	</g>
</g>
<g id="Background_Simple" style="display:none;">
	<g id="_x3C_Group_x3E__1_" style="display:inline;">
		<path id="_x3C_Path_x3E__9_" style="fill:#407BFF;" d="M60.977,203.647c28.799,109.202,158.017,150.831,220.998,37.839
			c32.466-58.247,149.821,51.173,142.191-33.697c-10.516-116.967-141.703-25.822-206.031-43.633
			c-44.095-12.208-43.964-91.558-111.687-78.438C52.911,96.089,49.005,158.249,60.977,203.647z"/>
		<path id="_x3C_Path_x3E__8_" style="opacity:0.9;fill:#FFFFFF;" d="M60.977,203.647
			c28.799,109.202,158.017,150.831,220.998,37.839c32.466-58.247,149.821,51.173,142.191-33.697
			c-10.516-116.967-141.703-25.822-206.031-43.633c-44.095-12.208-43.964-91.558-111.687-78.438
			C52.911,96.089,49.005,158.249,60.977,203.647z"/>
	</g>
</g>
<g id="Shadow_1_">
	<ellipse id="_x3C_Path_x3E__363_" style="fill:#F5F5F5;" cx="245" cy="416.238" rx="193.889" ry="11.323"/>
</g>
<g id="Design_tools">
	<g>
		<g>
			<polygon style="fill:#407BFF;" points="310.818,134.725 310.818,243.813 214.188,243.813 214.188,108.965 285.058,108.965 			"/>
			<polygon style="opacity:0.8;fill:#FFFFFF;" points="310.818,134.725 310.818,243.813 214.188,243.813 214.188,108.965 
				285.058,108.965 			"/>
			<rect x="214.188" y="181.829" style="opacity:0.2;fill:#407BFF;" width="96.63" height="6.594"/>
		</g>
		<polygon style="fill:#407BFF;" points="310.818,134.725 285.058,134.725 285.058,108.965 		"/>
	</g>
	<g>
		<g>
			<path style="fill:#407BFF;" d="M283.573,330.486h-35.119h-35.119c0,0,4.412,57.834-8.501,81.273c20.534,0,43.62,0,43.62,0
				s23.086,0,43.62,0C279.161,388.319,283.573,330.486,283.573,330.486z"/>
			<path style="opacity:0.2;" d="M284.941,386.808c-3.71-25.708-1.371-56.321-1.371-56.321h-70.232c0,0,2.102,27.563-0.845,52.344
				L284.941,386.808z"/>
			<path style="fill:#407BFF;" d="M302.206,409.727H194.703c-1.984,0-3.606,1.623-3.606,3.606h114.716
				C305.813,411.35,304.19,409.727,302.206,409.727z"/>
		</g>
		<g>
			<rect x="402.498" y="298.788" style="fill:#407BFF;" width="1.03" height="7.041"/>
			<rect x="402.498" y="272.257" style="fill:#407BFF;" width="1.03" height="20.178"/>
			<path style="fill:#407BFF;" d="M392.849,375.809H104.06c-3.89,0-7.073-3.183-7.073-7.073V193.852c0-3.89,3.183-7.073,7.073-7.073
				h288.788c3.89,0,7.073,3.183,7.073,7.073v174.883C399.922,372.626,396.739,375.809,392.849,375.809z"/>
			<path style="fill:#FFFFFF;" d="M390.064,330.486H106.845c-2.978,0-5.393-2.414-5.393-5.393V196.71
				c0-2.978,2.414-5.393,5.393-5.393h283.219c2.978,0,5.393,2.414,5.393,5.393v128.382
				C395.457,328.071,393.042,330.486,390.064,330.486z"/>
			<path style="opacity:0.9;fill:#FFFFFF;" d="M96.987,335.024v33.712c0,3.89,3.183,7.073,7.073,7.073h288.788
				c3.891,0,7.073-3.183,7.073-7.073v-33.712H96.987z"/>
			<circle style="opacity:0.5;fill:#407BFF;" cx="248.454" cy="355.416" r="6.805"/>
		</g>
	</g>
	<g>
		<g>
			<g>
				<rect x="124.321" y="127.412" style="fill:#407BFF;" width="39.842" height="163.489"/>
				<rect x="124.321" y="127.412" style="opacity:0.7;fill:#FFFFFF;" width="39.842" height="163.489"/>
			</g>
			<g>
				<rect x="127.297" y="135.198" style="opacity:0.3;fill:#263238;" width="33.888" height="15.57"/>
				<rect x="127.297" y="154.031" style="opacity:0.4167;fill:#263238;" width="33.888" height="15.57"/>
				<rect x="127.297" y="172.864" style="opacity:0.5333;fill:#263238;" width="33.888" height="15.57"/>
				<rect x="127.297" y="191.697" style="opacity:0.65;fill:#263238;" width="33.888" height="15.57"/>
				<rect x="127.297" y="210.531" style="opacity:0.7667;fill:#263238;" width="33.888" height="15.57"/>
				<rect x="127.297" y="229.364" style="opacity:0.8833;fill:#263238;" width="33.888" height="15.57"/>
				<rect x="127.297" y="248.197" style="fill:#263238;" width="33.888" height="15.57"/>
			</g>
		</g>
		<g>
			<g>
				
					<rect x="110.568" y="139.354" transform="matrix(0.9851 -0.1719 0.1719 0.9851 -36.0565 25.7155)" style="fill:#407BFF;" width="39.842" height="163.489"/>
				
					<rect x="110.568" y="139.354" transform="matrix(0.9851 -0.1719 0.1719 0.9851 -36.0565 25.7155)" style="opacity:0.8;fill:#FFFFFF;" width="39.842" height="163.489"/>
			</g>
			<g>
				
					<rect x="102.172" y="148.124" transform="matrix(0.9851 -0.1719 0.1719 0.9851 -25.022 22.7908)" style="opacity:0.3;fill:#407BFF;" width="33.888" height="15.57"/>
				
					<rect x="105.409" y="166.677" transform="matrix(0.9851 -0.1719 0.1719 0.9851 -28.1624 23.6231)" style="opacity:0.4167;fill:#3C6FDE;" width="33.888" height="15.57"/>
				
					<rect x="108.646" y="185.23" transform="matrix(0.9851 -0.1719 0.1719 0.9851 -31.3027 24.4554)" style="opacity:0.5333;fill:#3763BD;" width="33.888" height="15.57"/>
				
					<rect x="111.882" y="203.783" transform="matrix(0.9851 -0.1719 0.1719 0.9851 -34.443 25.2877)" style="opacity:0.65;fill:#33579B;" width="33.888" height="15.57"/>
				
					<rect x="115.119" y="222.336" transform="matrix(0.9851 -0.1719 0.1719 0.9851 -37.5841 26.1206)" style="opacity:0.7667;fill:#2F4A7A;" width="33.888" height="15.57"/>
				
					<rect x="118.356" y="240.889" transform="matrix(0.9851 -0.1719 0.1719 0.9851 -40.7237 26.9523)" style="opacity:0.8833;fill:#2A3E59;" width="33.888" height="15.57"/>
				
					<rect x="121.592" y="259.442" transform="matrix(0.9851 -0.1719 0.1719 0.9851 -43.864 27.7845)" style="fill:#263238;" width="33.888" height="15.57"/>
			</g>
		</g>
		<g>
			<g>
				
					<rect x="97.69" y="153.676" transform="matrix(0.9403 -0.3403 0.3403 0.9403 -73.0991 54.0789)" style="fill:#407BFF;" width="39.842" height="163.489"/>
				
					<rect x="97.69" y="153.676" transform="matrix(0.9403 -0.3403 0.3403 0.9403 -73.0991 54.0789)" style="opacity:0.9;fill:#FFFFFF;" width="39.842" height="163.489"/>
			</g>
			<g>
				
					<rect x="78.146" y="165.411" transform="matrix(0.9403 -0.3403 0.3403 0.9403 -53.2669 42.7001)" style="opacity:0.3;fill:#407BFF;" width="33.888" height="15.57"/>
				
					<rect x="84.555" y="183.12" transform="matrix(0.9403 -0.3403 0.3403 0.9403 -58.911 45.9384)" style="opacity:0.4167;fill:#407BFF;" width="33.888" height="15.57"/>
				
					<rect x="90.965" y="200.829" transform="matrix(0.9403 -0.3403 0.3403 0.9403 -64.5555 49.1769)" style="opacity:0.5333;fill:#407BFF;" width="33.888" height="15.57"/>
				
					<rect x="97.374" y="218.538" transform="matrix(0.9403 -0.3403 0.3403 0.9403 -70.1997 52.4153)" style="opacity:0.65;fill:#407BFF;" width="33.888" height="15.57"/>
				
					<rect x="103.784" y="236.247" transform="matrix(0.9403 -0.3403 0.3403 0.9403 -75.8439 55.6537)" style="opacity:0.7667;fill:#407BFF;" width="33.888" height="15.57"/>
				
					<rect x="110.193" y="253.956" transform="matrix(0.9403 -0.3403 0.3403 0.9403 -81.4882 58.8921)" style="opacity:0.8833;fill:#407BFF;" width="33.888" height="15.57"/>
				
					<rect x="116.603" y="271.665" transform="matrix(0.9403 -0.3403 0.3403 0.9403 -87.1324 62.1305)" style="fill:#407BFF;" width="33.888" height="15.57"/>
			</g>
		</g>
	</g>
	<path style="opacity:0.4;fill:#407BFF;" d="M177.368,166.149v98.454h98.454L177.368,166.149z M199.006,218.39l24.575,24.575
		h-24.575V218.39z"/>
	<g>
		<g>
			<path style="fill:#263238;" d="M350.762,196.798l-16.214-16.214c-0.692-0.691-0.692-1.813,0-2.504l7.365-7.365
				c0.691-0.691,1.813-0.691,2.504,0l16.214,16.214c0.691,0.691,0.691,1.813,0,2.504l-7.365,7.365
				C352.575,197.489,351.454,197.489,350.762,196.798z"/>
			<g>
				<path style="fill:#407BFF;" d="M386.922,144.426l-32.261,32.261l-5.445-5.445c4.713-4.713,1.971-15.7,1.971-15.7
					s5.272-5.272,8.951-8.951c14.481-2.023,45.046-23.674,45.046-23.674l0.965,0.965l-19.116,19.116
					C386.608,143.422,386.558,144.062,386.922,144.426z"/>
				<g>
					<path style="fill:#407BFF;" d="M384.751,171.204c-3.679,3.679-8.951,8.951-8.951,8.951s-10.988-2.742-15.701,1.971l-5.44-5.44
						l32.261-32.261c0.363,0.363,1.003,0.314,1.427-0.111l19.117-19.116l0.965,0.965
						C408.431,126.164,386.781,156.729,384.751,171.204z"/>
					<path style="opacity:0.2;fill:#FFFFFF;" d="M384.751,171.204c-3.679,3.679-8.951,8.951-8.951,8.951s-10.988-2.742-15.701,1.971
						l-5.44-5.44l32.261-32.261c0.363,0.363,1.003,0.314,1.427-0.111l19.117-19.116l0.965,0.965
						C408.431,126.164,386.781,156.729,384.751,171.204z"/>
				</g>
			</g>
		</g>
		<g>
			<g>
				<path style="fill:#407BFF;" d="M412.045,189.889l-0.58-0.58c9.313-9.313,14.442-21.695,14.442-34.866
					s-5.129-25.553-14.442-34.867c-19.226-19.224-50.507-19.225-69.733,0l-0.58-0.58c19.545-19.546,51.348-19.545,70.893,0
					c9.468,9.468,14.683,22.057,14.683,35.447C426.728,167.833,421.513,180.421,412.045,189.889z"/>
				
					<rect x="411.345" y="56.281" transform="matrix(0.7071 -0.7071 0.7071 0.7071 36.2525 326.0926)" style="fill:#407BFF;" width="0.82" height="126.01"/>
				<g>
					
						<rect x="409.154" y="116.685" transform="matrix(0.7071 0.7071 -0.7071 0.7071 204.9531 -256.2195)" style="fill:#407BFF;" width="5.201" height="5.201"/>
					<path style="fill:#407BFF;" d="M411.755,123.627l-4.341-4.341l4.341-4.34l4.341,4.34L411.755,123.627z M408.74,119.286
						l3.015,3.015l3.015-3.015l-3.015-3.015L408.74,119.286z"/>
				</g>
				<g>
					
						<rect x="338.841" y="116.685" transform="matrix(0.7071 0.7071 -0.7071 0.7071 184.3538 -206.4978)" style="fill:#FFFFFF;" width="5.201" height="5.201"/>
					<path style="fill:#407BFF;" d="M341.442,123.627l-4.341-4.341l4.341-4.34l4.341,4.34L341.442,123.627z M338.427,119.286
						l3.015,3.015l3.015-3.015l-3.015-3.015L338.427,119.286z"/>
				</g>
				<g>
					
						<rect x="409.307" y="187.151" transform="matrix(0.7071 0.7071 -0.7071 0.7071 254.8196 -235.6857)" style="fill:#FFFFFF;" width="5.201" height="5.201"/>
					<path style="fill:#407BFF;" d="M411.908,194.092l-4.341-4.341l4.341-4.341l4.341,4.341L411.908,194.092z M408.893,189.751
						l3.015,3.015l3.015-3.015l-3.015-3.015L408.893,189.751z"/>
				</g>
				<g>
					<path style="fill:#FFFFFF;" d="M458.298,165.829c-1.016,1.016-2.662,1.016-3.678,0c-1.016-1.016-1.016-2.662,0-3.678
						c1.016-1.016,2.662-1.016,3.678,0C459.313,163.167,459.313,164.813,458.298,165.829z"/>
					<path style="fill:#407BFF;" d="M456.459,167.058c-0.786,0-1.572-0.299-2.17-0.897c-1.197-1.197-1.197-3.144,0-4.341
						c1.197-1.196,3.144-1.196,4.341,0c1.197,1.197,1.197,3.144,0,4.341C458.031,166.758,457.245,167.058,456.459,167.058z
						 M456.459,161.859c-0.546,0-1.092,0.208-1.507,0.624c-0.832,0.831-0.832,2.184,0,3.015c0.831,0.831,2.184,0.831,3.015,0
						c0.832-0.831,0.832-2.184,0-3.015C457.551,162.067,457.005,161.859,456.459,161.859z"/>
				</g>
				<g>
					<path style="fill:#FFFFFF;" d="M369.043,76.573c-1.016,1.016-2.662,1.016-3.678,0c-1.016-1.016-1.016-2.662,0-3.678
						c1.016-1.016,2.662-1.016,3.678,0C370.058,73.911,370.058,75.558,369.043,76.573z"/>
					<path style="fill:#407BFF;" d="M367.204,77.802c-0.786,0-1.572-0.299-2.171-0.897c-1.196-1.197-1.196-3.144,0-4.34
						c1.197-1.196,3.144-1.196,4.341,0c0.58,0.579,0.899,1.35,0.899,2.17c0,0.82-0.319,1.591-0.899,2.17l0,0l0,0
						C368.775,77.503,367.99,77.802,367.204,77.802z M367.204,72.604c-0.546,0-1.092,0.208-1.507,0.624
						c-0.831,0.831-0.831,2.183,0,3.014c0.831,0.831,2.184,0.831,3.015,0l0,0c0.403-0.402,0.624-0.938,0.624-1.507
						c0-0.569-0.222-1.104-0.624-1.507C368.295,72.812,367.75,72.604,367.204,72.604z"/>
				</g>
			</g>
		</g>
	</g>
	<g>
		<g>
			<path style="fill:#FFFFFF;" d="M290.185,280.298v20.264c0,6.801,5.564,12.365,12.365,12.365h71.44
				c6.801,0,12.365-5.564,12.365-12.365v-71.44c0-6.801-5.564-12.365-12.365-12.365h-71.44c-6.801,0-12.365,5.564-12.365,12.365
				v22.211"/>
			<path style="fill:#407BFF;" d="M373.991,313.443h-3.961v-1.031h4.112l0.019,1.029L373.991,313.443z M365.908,313.443h-4.122
				v-1.031h4.122V313.443z M357.665,313.443h-4.122v-1.031h4.122V313.443z M349.422,313.443H345.3v-1.031h4.122V313.443z
				 M341.179,313.443h-4.121v-1.031h4.121V313.443z M332.935,313.443h-4.122v-1.031h4.122V313.443z M324.693,313.443h-4.122v-1.031
				h4.122V313.443z M316.45,313.443h-4.121v-1.031h4.121V313.443z M308.207,313.443h-4.122v-1.031h4.122V313.443z M299.875,313.162
				c-1.403-0.3-2.739-0.831-3.971-1.578l0.534-0.881c1.133,0.688,2.362,1.176,3.652,1.451L299.875,313.162z M378.363,312.675
				l-0.353-0.969c1.239-0.45,2.39-1.103,3.421-1.938l0.648,0.801C380.96,311.476,379.709,312.185,378.363,312.675z M292.666,308.799
				c-0.924-1.105-1.651-2.346-2.161-3.685l0.963-0.367c0.469,1.233,1.139,2.374,1.989,3.393L292.666,308.799z M384.912,307.371
				l-0.873-0.547c0.704-1.124,1.211-2.345,1.505-3.63l1.004,0.23C386.228,304.822,385.677,306.149,384.912,307.371z
				 M289.675,300.922c-0.003-0.119-0.005-0.239-0.005-0.359v-3.777h1.03l0.005,4.105L289.675,300.922z M386.871,299.211h-1.03
				v-4.121h1.03V299.211z M290.701,292.663h-1.03v-4.121h1.03V292.663z M386.871,290.968h-1.03v-4.121h1.03V290.968z
				 M290.701,284.42h-1.03v-4.121h1.03V284.42z M386.871,282.725h-1.03v-4.121h1.03V282.725z M386.871,274.481h-1.03v-4.121h1.03
				V274.481z M386.871,266.238h-1.03v-4.121h1.03V266.238z M386.871,257.995h-1.03v-4.121h1.03V257.995z M290.701,250.716h-1.03
				v-4.121h1.03V250.716z M386.871,249.752h-1.03v-4.121h1.03V249.752z M290.701,242.473h-1.03v-4.121h1.03V242.473z
				 M386.871,241.51h-1.03v-4.122h1.03V241.51z M290.701,234.23h-1.03v-4.121h1.03V234.23z M386.871,233.267h-1.03v-4.122h1.03
				V233.267z M291.081,226.151l-0.997-0.26c0.361-1.386,0.951-2.697,1.753-3.897l0.856,0.573
				C291.954,223.671,291.412,224.876,291.081,226.151z M385.192,225.268c-0.432-1.245-1.067-2.405-1.888-3.449l0.81-0.637
				c0.892,1.133,1.582,2.394,2.052,3.748L385.192,225.268z M295.386,219.701l-0.625-0.819c1.146-0.875,2.417-1.546,3.778-1.996
				l0.323,0.979C297.61,218.277,296.441,218.895,295.386,219.701z M380.399,219.169c-1.114-0.722-2.327-1.247-3.607-1.559
				l0.245-1.001c1.392,0.341,2.712,0.911,3.923,1.695L380.399,219.169z M372.822,217.273H368.7v-1.03h4.122V217.273z
				 M364.579,217.273h-4.122v-1.03h4.122V217.273z M356.335,217.273h-4.122v-1.03h4.122V217.273z M348.092,217.273h-4.122v-1.03
				h4.122V217.273z M339.849,217.273h-4.122v-1.03h4.122V217.273z M331.606,217.273h-4.122v-1.03h4.122V217.273z M323.363,217.273
				h-4.122v-1.03h4.122V217.273z M315.12,217.273h-4.122v-1.03h4.122V217.273z M306.877,217.273h-4.122v-1.03h4.122V217.273z"/>
		</g>
		<path style="fill:#407BFF;" d="M290.359,266.866v-12.557c-2.442,4.698-2.371,10.336-2.371,10.336l1.689,1.69v1.212l-2.512,2.512
			c0.008-0.357-0.096-0.674-0.322-0.9c-0.607-0.607-1.85-0.34-2.783,0.593c-0.929,0.929-1.196,2.172-0.589,2.779
			c0.604,0.603,1.847,0.336,2.776-0.593c0.002-0.002,0.004-0.004,0.005-0.006l-0.003,0.007l3.428-3.428v5.462l0.003-0.007
			c0,0.003,0,0.005,0,0.008c0,1.313,0.69,2.382,1.543,2.382c0.858,0,1.548-1.068,1.548-2.382c0-1.319-0.69-2.387-1.548-2.387
			c-0.32,0-0.618,0.151-0.865,0.409v-4.167l1.292-1.291h2.39c0,0,4.036-3.937,5.632-8.985L290.359,266.866z M285.944,271.635
			c-0.668,0.668-1.568,0.86-2.002,0.426c-0.437-0.437-0.242-1.333,0.427-2.002c0.672-0.672,1.565-0.864,2.002-0.427
			C286.804,270.066,286.616,270.962,285.944,271.635z M291.224,272.257c0.618,0,1.114,0.767,1.114,1.717
			c0,0.945-0.496,1.717-1.114,1.717c-0.614,0-1.114-0.772-1.114-1.717C290.109,273.024,290.61,272.257,291.224,272.257z"/>
	</g>
	<g>
		<path style="fill:#263238;" d="M251.633,289.934L251.633,289.934c-2.367-2.367-2.367-6.241,0-8.608l3.86-3.86
			c2.367-2.367,6.24-2.367,8.607,0l0,0c2.367,2.367,2.367,6.24,0,8.607l-3.86,3.86C257.874,292.301,254,292.301,251.633,289.934z"/>
		<g>
			<path style="fill:#FFFFFF;" d="M232.106,316.749l23.681-23.681l-7.287-7.288l-23.68,23.68c-0.566,0.566-0.709,1.431-0.354,2.148
				l0,0c0.256,0.517,0.28,1.135,0.004,1.641c-0.586,1.076-0.424,2.451,0.486,3.361c0.91,0.91,2.285,1.072,3.361,0.486
				c0.507-0.276,1.124-0.252,1.641,0.004l0,0C230.675,317.458,231.539,317.315,232.106,316.749z"/>
			<path style="fill:#407BFF;" d="M226.97,318.469c-1.006,0-2.003-0.388-2.743-1.128c-1.204-1.204-1.477-3.088-0.663-4.583
				c0.103-0.189,0.094-0.454-0.023-0.69c-0.552-1.116-0.331-2.456,0.549-3.335l23.68-23.68c0.402-0.402,1.055-0.402,1.457,0
				l7.287,7.287c0.402,0.402,0.402,1.055,0,1.457l-23.681,23.681h0.001h-0.001c-0.879,0.881-2.22,1.1-3.334,0.549
				c-0.237-0.119-0.501-0.127-0.69-0.023C228.234,318.316,227.6,318.469,226.97,318.469z M248.499,287.238l-22.952,22.952
				c-0.254,0.254-0.318,0.641-0.158,0.963c0.416,0.842,0.41,1.811-0.015,2.591c-0.38,0.697-0.253,1.577,0.31,2.14
				c0.563,0.562,1.441,0.69,2.14,0.31c0.781-0.424,1.749-0.43,2.591-0.015c0.322,0.16,0.708,0.097,0.962-0.158h0.001l22.952-22.952
				L248.499,287.238z"/>
		</g>
		<path style="fill:#263238;" d="M246.573,281.878L246.573,281.878c1.161-1.161,3.062-1.161,4.223,0l8.893,8.893
			c1.161,1.161,1.161,3.062,0,4.223l0,0c-1.161,1.161-3.062,1.161-4.224,0l-8.893-8.893
			C245.411,284.94,245.411,283.039,246.573,281.878z"/>
	</g>
</g>
</svg>
